<?xml version="1.0" encoding="UTF-8" standalone="no"?>
<!-- Created with Inkscape (http://www.inkscape.org/) -->
<svg
   xmlns:ns="http://creativecommons.org/ns#"
   xmlns:dc="http://purl.org/dc/elements/1.1/"
   xmlns:cc="http://web.resource.org/cc/"
   xmlns:rdf="http://www.w3.org/1999/02/22-rdf-syntax-ns#"
   xmlns:svg="http://www.w3.org/2000/svg"
   xmlns="http://www.w3.org/2000/svg"
   xmlns:sodipodi="http://sodipodi.sourceforge.net/DTD/sodipodi-0.dtd"
   xmlns:inkscape="http://www.inkscape.org/namespaces/inkscape"
   version="1.0"
   width="150"
   height="150"
   id="svg2"
   sodipodi:version="0.32"
   inkscape:version="0.45.1"
   sodipodi:docname="Replace_this_image_female.svg"
   sodipodi:docbase="C:\Documents and Settings\Administrador\Desktop"
   inkscape:output_extension="org.inkscape.output.svg.inkscape">
  <metadata
     id="metadata1943">
    <rdf:RDF>
      <ns:Work
         rdf:about="">
        <dc:format>image/svg+xml</dc:format>
        <dc:type
           rdf:resource="http://purl.org/dc/dcmitype/StillImage" />
      </ns:Work>
      <cc:Work
         rdf:about="">
        <dc:format>image/svg+xml</dc:format>
        <dc:type
           rdf:resource="http://purl.org/dc/dcmitype/StillImage" />
      </cc:Work>
    </rdf:RDF>
  </metadata>
  <sodipodi:namedview
     inkscape:window-height="749"
     inkscape:window-width="1024"
     inkscape:pageshadow="2"
     inkscape:pageopacity="0.0"
     guidetolerance="10.0"
     gridtolerance="10.0"
     objecttolerance="10.0"
     borderopacity="1.0"
     bordercolor="#666666"
     pagecolor="#ffffff"
     id="base"
     width="150px"
     height="150px"
     inkscape:zoom="1"
     inkscape:cx="69.723643"
     inkscape:cy="75.461816"
     inkscape:window-x="-4"
     inkscape:window-y="-4"
     inkscape:current-layer="svg2"
     showgrid="false" />
  <defs
     id="defs5">
    <inkscape:perspective
       sodipodi:type="inkscape:persp3d"
       inkscape:vp_x="0 : 75 : 1"
       inkscape:vp_y="0 : 1000 : 0"
       inkscape:vp_z="150 : 75 : 1"
       inkscape:persp3d-origin="75 : 50 : 1"
       id="perspective6670" />
  </defs>
  <path
     style="fill:#eaeafc;fill-opacity:1"
     d="M 0,-0.094182983 L 150.09418,-0.094182983 L 150.09418,149.99999 L 0,149.99999 L 0,-0.094182983 z "
     id="rect2208" />
  <path
     style="fill:#dcdcdc;fill-rule:evenodd;stroke:none;stroke-width:1px;stroke-linecap:butt;stroke-linejoin:miter;stroke-opacity:1;fill-opacity:1"
     d="M 90.160821,3.9878253 C 95.302715,7.0912209 99.657678,8.0784214 104.85615,19.327068 C 112.4152,35.683602 112.33224,39.345386 115.50389,33.643593 C 114.89817,35.120591 114.33254,36.582678 114.77459,37.67012 C 115.40664,38.338088 116.0387,38.082637 116.67077,37.67012 C 116.29913,38.212918 116.80055,40.356636 117.69178,38.714035 C 118.32464,37.547618 118.27521,37.520987 118.27521,37.520987 C 118.71555,38.550193 118.48031,39.825779 118.56693,40.205339 C 119.44209,41.306404 120.31724,39.431581 121.19241,37.520987 C 121.3875,39.128238 121.25729,40.886913 120.02553,42.591421 C 122.93254,43.824441 122.99725,40.287968 122.35927,37.819248 C 123.32646,39.402536 124.09441,41.176814 123.52616,44.231853 C 123.86649,44.831476 124.20683,43.496938 124.54717,43.038815 C 124.44889,43.920246 124.54564,45.507419 123.74495,45.760437 C 124.26535,45.948317 124.92612,46.487529 125.89637,45.387616 C 125.99511,48.064417 125.21895,49.889695 121.55705,49.115873 C 122.64694,49.843737 122.82054,54.974745 124.83888,51.240986 C 125.56101,52.354673 124.30376,53.097646 123.70848,55.379356 C 123.35173,60.726478 119.95446,60.028885 118.01996,62.239357 C 117.52089,64.638573 117.10092,65.31294 116.35475,67.085966 C 115.87893,68.216604 119.24453,70.725116 119.37584,65.840755 C 119.92864,70.758276 115.67547,68.900846 114.17188,71.226068 C 113.63265,71.756267 113.03426,72.17153 112.36791,72.454796 C 107.80055,75.275107 105.3027,82.929872 103.32463,83.863279 C 102.65988,84.553478 98.405188,84.472229 96.177521,84.086973 C 95.056393,86.808801 94.173897,88.140537 92.567499,89.604804 C 90.794839,93.47893 89.398935,102.4504 94.864789,106.90394 C 103.93746,114.29629 106.70639,116.47234 118.31168,118.94623 C 144.04316,124.43137 141.64918,138.15425 146.52443,149.22057 L 4.2684434,149.10232 C 8.4722232,138.65176 6.5057993,124.78116 32.400512,118.38699 C 41.809918,116.06353 45.665129,113.88233 53.586587,107.01579 C 58.527434,102.73292 57.525829,93.992671 56.430844,89.26926 C 52.492745,88.830114 50.453013,87.743992 49.721308,86.212086 C 47.834983,86.213326 45.788183,86.559103 45.78311,82.521109 C 40.677054,84.918009 38.369237,80.902342 36.010533,77.003277 C 33.676468,75.838921 30.785763,76.281505 29.993836,70.665232 L 29.337465,68.838378 C 28.258459,67.299138 28.758517,65.138948 28.863423,63.134138 C 29.556257,64.192938 29.957369,64.454059 30.650203,64.849139 C 25.45004,58.57076 28.554519,54.741676 27.842407,49.786961 C 29.128953,50.509472 30.192757,50.146958 31.270103,49.525986 L 29.009284,49.00403 C 29.009284,49.00403 38.372176,48.826702 33.385065,48.258374 C 29.535827,47.819719 29.738581,45.61131 29.738581,45.61131 C 30.858145,46.248089 31.861904,47.102901 32.983953,46.095986 C 32.976705,44.765501 33.371875,43.688226 34.624869,43.150669 C 33.040833,40.780466 35.608713,34.973707 34.406081,32.375986 C 35.118659,32.882161 35.598054,34.063845 36.849224,33.009791 C 37.647567,30.866823 38.070471,30.090929 39.255905,29.72892 C 39.966226,27.58947 41.038805,26.079668 42.720064,25.627832 C 42.720064,25.627832 44.917074,18.544134 46.439476,16.046197 C 50.149435,9.9589722 51.726876,8.6481529 58.728129,4.174238 C 65.617107,-0.22793065 70.986164,-0.47646267 74.444475,1.3034757 C 76.41908,2.3197738 77.708079,2.4592371 78.60147,2.4592376 C 81.172238,2.4592376 83.151358,-0.24274444 90.160821,3.9878253 z "
     id="path1873" />
</svg>
