<?xml version="1.0" encoding="UTF-8" standalone="no"?>
<svg xmlns="http://www.w3.org/2000/svg" version="1.0" width="150" height="150" >
  <rect id="background" width="150" height="150" fill="#eaeafc" />
  <path id="silhouette" fill="#dcdcdc" stroke="#dcdcdc" stroke-width="5" d="m 2.3369165,147.52777 c 0.112176,-8.07682 0.1903953,-11.4877 -0.048038,-21.95861 5.2663213,-6.5961 23.8048781,-9.6212 28.8694171,-11.43252 6.53583,-4.87841 13.940333,-9.03002 20.32322,-12.7055 3.52479,-2.029657 3.570632,-8.98696 3.31264,-13.659137 C 53.623058,81.155196 53.004033,75.449359 48.280075,70.590862 48.015821,69.203592 47.244243,66.02033 44.924523,61.861875 43.363431,54.873106 37.210536,46.218891 38.756419,41.779132 42.873273,29.955649 39.276482,25.150745 41.804516,24.140144 47.569987,21.83536 49.129073,16.795042 54.409687,11.733932 69.837731,8.7952065 67.46623,0.96903968 78.993737,2.4807766 c 14.287876,1.8737347 6.419018,3.9864769 16.218736,8.9660134 12.039507,6.117642 4.865807,6.737299 15.856727,22.934523 6.52655,9.618101 -6.18702,10.273771 -2.893,18.785138 3.04294,7.862492 -4.13015,9.202874 -7.74909,17.807185 -3.471885,8.254756 -5.650495,10.681838 -1.652883,21.562263 3.712243,10.103751 9.875613,5.48721 23.796833,20.620371 3.53483,3.84258 16.23445,-0.80877 24.97867,10.41249 -0.005,5.75243 0.12207,11.88242 0.16139,24.14235 C 108.51881,147.57073 2.3369165,147.52777 2.3369165,147.52777 z" />
</svg>
